<?xml version="1.0" encoding="UTF-8"?>
<!-- This logo is the character "Greek Small Letter Alpha" U+03B1 rendered in font EB Garamond (https://fonts.google.com/specimen/EB+Garamond), with some slight scaling tweaks. -->
<svg xmlns="http://www.w3.org/2000/svg" width="37.795" height="37.795" viewBox="0 0 10 10">
  <path fill="#f59e0b" d="M2.261 10q-.705 0-1.224-.296Q.54 9.429.27 8.879 0 8.33 0 7.505q0-.845.166-1.797.187-.951.519-1.86.332-.93.767-1.692.457-.76.996-1.205.54-.465 1.141-.465.913 0 1.432.825.54.824.83 2.008.041.127.103.148.083 0 .104-.127.187-.74.415-1.48.228-.74.311-1.183.062-.275.208-.466Q7.137 0 7.302 0q.291 0 .706.254.415.253.726.634.332.38.332.782 0 .444-.31 1.332-.291.888-.83 1.966-.54 1.079-1.246 2.093.166.212.395.275.249.064.456.064.56 0 .954-.233.415-.233.664-.444.27-.233.332-.233.104 0 .208.064.104.063.145.19.062.148.104.402.062.232.062.444 0 .698-.332 1.247-.311.55-.81.867-.476.296-.974.296-.643 0-1.1-.655-.435-.677-.684-1.713-.727.91-1.743 1.65Q3.36 10 2.26 10zm-.103-1.142q.477 0 1.224-.845.747-.867 1.514-2.157l.332-.592.332-.592q-.228-.76-.58-1.12-.333-.38-.872-.38-.436 0-.913.507-.477.507-.871 1.268-.395.761-.644 1.565-.248.803-.248 1.416 0 .444.166.698.165.232.56.232z"></path>
</svg>
